<svg xmlns="http://www.w3.org/2000/svg" width="363" height="54" viewBox="0 0 363 54">
  <defs>
    <style>
      .cls-1 {
        fill: #0d1f35;
      }

      .cls-1, .cls-2 {
        fill-rule: evenodd;
      }

      .cls-2 {
        fill: #0d1f35;
      }
    </style>
  </defs>
  <path id="Rectangle_1_copy_5" data-name="Rectangle 1 copy 5" class="cls-1" d="M61.846,52.519L36.771,27.079l37.225,0L61.165,14.2,49.6,25.38,37.067,25.4,60.939,1.48,86.912,27.453ZM52.3,30.624l9.32,9.19,8.9-9.2Zm-1.1,16-5.354,5.354-24.7-24.7L45.947,2.468l4.877,4.877L31.369,26.8Zm-16.38-.159L29.682,51.6H20.889L0.994,31.518l2.173-2.174L18.222,44.4l1.961-1.961L5.235,27.489,30.043,2.68,34.92,7.557,15.413,27.065Z"/>
  <path id="SCAL_Academy_Pte_Ltd" data-name="SCAL Academy Pte Ltd" class="cls-2" d="M106.566,32.92h0c0.341,2.494,2.069,4.972,6.444,4.972,4.142,0,6.109-2.213,6.109-4.892,0-2.16-.793-4.115-5.734-5.332-3.145-.772-4.219-1.474-4.219-3.267,0-1.818,1.291-2.892,3.632-2.892,2.654,0,3.763,1.314,4.122,3.041h1.829c-0.229-2.2-1.89-4.567-5.872-4.567-3.81,0-5.59,2.13-5.59,4.558,0,2.489,1.52,3.781,5.4,4.738,3.686,0.9,4.553,2.015,4.553,3.885,0,1.784-1.157,3.236-4.137,3.236-2.715,0-4.209-1.263-4.709-3.48h-1.829Zm28.215-.027h0a4.835,4.835,0,0,1-4.875,3.445c-4.266,0-5.926-3.79-5.926-7.387h0c0-3.659,1.709-7.413,5.826-7.413a4.764,4.764,0,0,1,5,3.571h1.783c-0.547-2.917-2.772-5.125-6.7-5.125-5.185,0-7.8,4.288-7.8,9.013h0c0,4.921,2.638,8.9,7.743,8.9a6.482,6.482,0,0,0,6.732-5h-1.787Zm14.74-.882,2.119,5.673h1.92l-6.592-17.452h-2.161l-6.321,17.452h1.792l2.064-5.673h7.179Zm-6.647-1.579c1.466-4.206,2.543-7.233,2.968-8.627h0.025c0.362,1.243,1.322,3.711,3.14,8.627h-6.133Zm13.858,7.252h10.752l0.282-1.579h-9.251V20.233h-1.783V37.685ZM186.7,32.011l2.119,5.673h1.92l-6.592-17.452h-2.161L175.66,37.685h1.792l2.065-5.673H186.7Zm-6.647-1.579c1.467-4.206,2.543-7.233,2.968-8.627h0.025c0.362,1.243,1.322,3.711,3.14,8.627h-6.133ZM201.4,33.917h0a3.291,3.291,0,0,1-3.327,2.6c-2.432,0-3.756-2.192-3.756-5.127h0c0-3.013,1.4-5.115,3.861-5.115a3.129,3.129,0,0,1,3.226,2.637h1.68a4.589,4.589,0,0,0-4.873-4.108c-3.723,0-5.64,3.151-5.64,6.648h0c0,4.123,2.2,6.532,5.486,6.532a4.913,4.913,0,0,0,5.027-4.067H201.4Zm13.761-5.071c0-2.81-1.652-4.038-4.614-4.042-3.539,0-4.493,2.073-4.651,3.616h1.643c0.255-1.009.622-2.21,2.963-2.21,2.633,0,3,1.535,3,2.725v1.187h-2.279c-3.758,0-5.927,1.27-5.927,4.056h0c0,1.9,1.262,3.806,4.2,3.806,2.523,0,3.583-1.216,4.016-2.1a7.64,7.64,0,0,0,.217,1.8h1.6a16.6,16.6,0,0,1-.175-2.551V28.847Zm-1.638,2.981c0,2.52-.46,4.75-3.8,4.75a2.438,2.438,0,0,1-2.691-2.482h0c0-1.986,1.557-2.7,4.22-2.7h2.269v0.43Zm14.225-12.536v7.272c-0.359-.76-1.359-1.759-3.743-1.759-3.448,0-5.589,2.858-5.589,6.732h0c0,3.8,1.974,6.448,5.228,6.448,2.131,0,3.479-.831,4.1-2.264,0,0.565.037,1.648,0.091,1.964h1.609c-0.025-1.238-.025-2.4-0.025-3.592v-14.8h-1.675Zm-3.668,7c3.043,0,3.734,1.818,3.734,4.859h0c0,3.119-.788,5.354-3.935,5.354-2.078,0-3.709-1.762-3.709-5.023h0C220.174,28.171,221.717,26.288,224.084,26.288Zm19.337,5.369c0.029-.333.029-0.671,0.029-1.037,0-2.51-1.277-5.815-5.236-5.815-3.742,0-5.573,3.043-5.573,6.706h0c0,3.215,1.543,6.474,5.427,6.474a4.955,4.955,0,0,0,5.11-3.645h-1.7a3.249,3.249,0,0,1-3.356,2.174c-2.287,0-3.764-1.924-3.785-4.856h9.08Zm-9-1.3h0c0.251-2.437,1.338-4.124,3.756-4.124,2.322,0,3.536,1.826,3.561,4.124h-7.317Zm12.231,7.328h1.667V30.745c0-2.49,1.086-4.411,3.335-4.411,2.16,0,2.67,1.588,2.67,3.325v8.026h1.642V30.449c0-2.345,1.007-4.119,3.268-4.119,2.169,0,2.737,1.7,2.737,3.284v8.071h1.659V29.411c0-3.455-1.972-4.607-3.957-4.607a4.279,4.279,0,0,0-4.059,2.383,3.514,3.514,0,0,0-3.573-2.383,3.909,3.909,0,0,0-3.722,2.4c0.017-.685-0.037-1.7-0.066-2.1h-1.626c0.025,1,.025,2.162.025,3.245v9.335Zm19.39-12.58,4.763,13.1c-0.845,2.367-1.436,3.165-3.148,3.165a8.313,8.313,0,0,1-1.089-.071v1.547a9.811,9.811,0,0,0,1.246.079c2.407,0,3.331-.877,4.64-4.581L277.085,25.1h-1.713c-2.265,6.736-3.221,9.637-3.681,11.121h-0.025c-0.385-1.322-1.5-4.46-3.805-11.121h-1.824ZM286.7,37.685h1.8V30.276h4.448c3.4,0,5.695-1.826,5.695-5.084h0c0-3.132-2.252-4.959-5.536-4.959H286.7V37.685Zm1.8-15.889h4.561c2.209,0,3.711,1.2,3.711,3.45h0c0,2.12-1.183,3.468-3.807,3.468h-4.465V21.8Zm12.5,4.761h2.265v8.355c0,2.048.888,2.948,2.656,2.948a5.059,5.059,0,0,0,1.707-.229V36.282a4.744,4.744,0,0,1-1.212.13c-1.176,0-1.476-.724-1.476-2.048V26.556h2.9V25.1h-2.9V21.276h-1.675V25.1h-2.265v1.452Zm19.212,5.1c0.029-.333.029-0.671,0.029-1.037,0-2.51-1.277-5.815-5.236-5.815-3.742,0-5.573,3.043-5.573,6.706h0c0,3.215,1.543,6.474,5.427,6.474a4.955,4.955,0,0,0,5.11-3.645h-1.7a3.249,3.249,0,0,1-3.356,2.174c-2.287,0-3.764-1.924-3.785-4.856h9.08Zm-9.005-1.3h0c0.251-2.437,1.338-4.124,3.756-4.124,2.322,0,3.536,1.826,3.561,4.124h-7.317Zm19.263,7.328h10.753l0.282-1.579h-9.252V20.233h-1.783V37.685Zm11.629-11.129h2.265v8.355c0,2.048.888,2.948,2.657,2.948a5.057,5.057,0,0,0,1.706-.229V36.282a4.744,4.744,0,0,1-1.212.13c-1.176,0-1.476-.724-1.476-2.048V26.556h2.895V25.1h-2.895V21.276h-1.675V25.1h-2.265v1.452Zm17.768-7.265v7.272c-0.359-.76-1.359-1.759-3.743-1.759-3.448,0-5.589,2.858-5.589,6.732h0c0,3.8,1.974,6.448,5.228,6.448,2.131,0,3.479-.831,4.1-2.264,0,0.565.037,1.648,0.091,1.964h1.609c-0.025-1.238-.025-2.4-0.025-3.592v-14.8h-1.675Zm-3.668,7c3.043,0,3.734,1.818,3.734,4.859h0c0,3.119-.787,5.354-3.935,5.354-2.078,0-3.709-1.762-3.709-5.023h0C352.3,28.171,353.84,26.288,356.207,26.288Z"/>
</svg>
